<svg width="3436" height="5184" viewBox="0 0 3436 5184" fill="none" xmlns="http://www.w3.org/2000/svg" preserveAspectRatio="none">
<rect width="3436" height="5184" fill="#F2F2F2"/>
<g id="Map Outdoor">
<path d="M-542 -330C-542 -331.105 -541.105 -332 -540 -332H3976C3977.1 -332 3978 -331.105 3978 -330V5780C3978 5781.1 3977.1 5782 3976 5782H-540C-541.104 5782 -542 5781.1 -542 5780V-330Z" fill="black"/>
<path d="M-540 -332V-331H3976V-332V-333H-540V-332ZM3978 -330H3977V5780H3978H3979V-330H3978ZM3976 5782V5781H-540V5782V5783H3976V5782ZM-542 5780H-541V-330H-542H-543V5780H-542ZM-540 5782V5781C-540.552 5781 -541 5780.55 -541 5780H-542H-543C-543 5781.66 -541.657 5783 -540 5783V5782ZM3978 5780H3977C3977 5780.55 3976.55 5781 3976 5781V5782V5783C3977.66 5783 3979 5781.66 3979 5780H3978ZM3976 -332V-331C3976.55 -331 3977 -330.552 3977 -330H3978H3979C3979 -331.657 3977.66 -333 3976 -333V-332ZM-540 -332V-333C-541.657 -333 -543 -331.657 -543 -330H-542H-541C-541 -330.552 -540.552 -331 -540 -331V-332Z" fill="black" fill-opacity="0.1"/>
<g id="Group 28989773">
<g id="Group 28989713">
<g id="Group 28989702">
<path id="Water3 #structure" d="M385.367 4L423 56.5L339 201L268.5 228.5L251 360L327.5 454L339 510.5L419 548L445 614.5L505.5 671L605.5 782.5L791 721L880.579 893.5L704.079 955L936.5 1369.5L1020 1535.5L1030.5 1601L1047.5 1625.5C1044.5 1637.83 1040.3 1663.7 1047.5 1668.5C1054.7 1673.3 1084.5 1697.5 1098.5 1709L1124.5 1784.5L1160.5 1848H1222.5L1298 1963.5L1324 2007V2028.5L1367 2072L1439.5 2280.5L1461 2474L1451 2589.5L1407.5 2618.5V2647.5L1397.5 2681V2821C1417.17 2835 1449.6 2873.1 1422 2913.5C1394.4 2953.9 1394.17 3014.33 1397.5 3039.5L1384.5 3292.5L1373 3557L1299.5 4100.5L1206.5 4420H1169L1144.5 4452L1110 4468V4528.5L1152 4566L1091 4709.5L1049 4916L982.5 4994V5130L948 5182H2286V5183H0V4H385.367Z" fill="#0A0A0A"/>
<path id="Water2 #structure" d="M120.5 458L182.5 0H1V5180H863V4844L966.5 4259L1120 3910.5L1178.5 3317L1215.5 2877V2449.5L1112 2089L979 1856.5L635 1429L327.5 935.5L120.5 458Z" fill="#131313"/>
<path id="Bush #scenery" d="M381 2961.5L488 3059.5H630L777.5 3013.5L844 2874.5L936.5 2828.5L919 2715.5L962.5 2441L896 2255.5L1003 2157.5L962.5 2059H858.5L818 1937.5L676 1816L554.5 1906L346.5 1816L233.5 1987V2157.5L329 2238.5L346.5 2328L300 2441C300 2482.33 314.5 2576.5 314.5 2576.5L356.5 2681L314.5 2821L381 2874.5V2961.5Z" fill="#262626"/>
<path id="Water1 #structure" opacity="0.4" d="M1234.5 1592.5C1219.7 1594.9 915.667 998.167 783 706L1952.5 288L2325 1190.5C2325 1190.5 1249.3 1590.1 1234.5 1592.5Z" fill="#DBF5FF"/>

<path id="Base2 #structure" d="M423 56.5L382.5 0H2217L3436 1521L3307.5 2160.5L3157 5182H948L982.5 5130V4994L1049 4916L1091 4709.5L1152 4566L1110 4528.5V4468L1144.5 4452L1169 4420H1206.5L1299.5 4100.5L1373 3557L1384.5 3292.5L1397.5 3039.5C1394.17 3014.33 1394.4 2953.9 1422 2913.5C1449.6 2873.1 1417.17 2835 1397.5 2821V2681L1407.5 2647.5V2618.5L1451 2589.5L1461 2474L1439.5 2280.5L1367 2072L1324 2028.5V2007L1298 1963.5L1222.5 1848H1160.5L1124.5 1784.5L1098.5 1709C1084.5 1697.5 1054.7 1673.3 1047.5 1668.5C1040.3 1663.7 1044.5 1637.83 1047.5 1625.5L1030.5 1601L1020 1535.5L936.5 1369.5L704.5 954.5L881 893L1204 1521L1345 1466.5L1277.5 1270.5L1298.5 1264.5L1355 1426L1413 1403.5L1425 1439L1520.5 1409L1450.5 1208L1475.5 1199L1557.5 1439L1716.5 1379.5L1655 1187.5L1676.5 1179.5L1743 1371L1921 1307.5L1848.5 1102L1869.5 1094L1940 1295.5L2081.5 1243.5L1997.5 1019.5L2038 1008L2007.5 937L2153.5 872L1928 327L605.5 782.5L505.5 671L445 614.5L419 548L339 510.5L327.5 454L251 360L268.5 228.5L339 201L423 56.5Z" fill="#6C6C6C"/>
<g id="Base #structure">
<mask id="path-10-inside-1_2440_4877" fill="white">
<path d="M423 56.5L382.5 0H3436V1521V2160.5V5182H948L982.5 5130V4994L1049 4916L1091 4709.5L1152 4566L1110 4528.5V4468L1144.5 4452L1169 4420H1206.5L1299.5 4100.5L1373 3557L1384.5 3292.5L1397.5 3039.5C1394.17 3014.33 1394.4 2953.9 1422 2913.5C1449.6 2873.1 1417.17 2835 1397.5 2821V2681L1407.5 2647.5V2618.5L1451 2589.5L1461 2474L1439.5 2280.5L1367 2072L1324 2028.5V2007L1298 1963.5L1222.5 1848H1160.5L1124.5 1784.5L1098.5 1709C1084.5 1697.5 1054.7 1673.3 1047.5 1668.5C1040.3 1663.7 1044.5 1637.83 1047.5 1625.5L1030.5 1601L1020 1535.5L936.5 1369.5L704.079 955L880.579 893.5L1204 1521L1345 1466.5L1277.5 1270.5L1298.5 1264.5L1355 1426L1413 1403.5L1425 1439L1520.5 1409L1450.5 1208L1475.5 1199L1557.5 1439L1716.5 1379.5L1655 1187.5L1676.5 1179.5L1743 1371L1921 1307.5L1848.5 1102L1869.5 1094L1940 1295.5L2081.5 1243.5L1997.5 1019.5L2038 1008L2007.5 937L2153.5 872L1928 327L605.5 782.5L505.5 671L445 614.5L419 548L339 510.5L327.5 454L251 360L268.5 228.5L339 201L423 56.5Z"/>
</mask>
<path d="M423 56.5L382.5 0H3436V1521V2160.5V5182H948L982.5 5130V4994L1049 4916L1091 4709.5L1152 4566L1110 4528.5V4468L1144.5 4452L1169 4420H1206.5L1299.5 4100.5L1373 3557L1384.5 3292.5L1397.5 3039.5C1394.17 3014.33 1394.4 2953.9 1422 2913.5C1449.6 2873.1 1417.17 2835 1397.5 2821V2681L1407.5 2647.5V2618.5L1451 2589.5L1461 2474L1439.5 2280.5L1367 2072L1324 2028.5V2007L1298 1963.5L1222.5 1848H1160.5L1124.5 1784.5L1098.5 1709C1084.5 1697.5 1054.7 1673.3 1047.5 1668.5C1040.3 1663.7 1044.5 1637.83 1047.5 1625.5L1030.5 1601L1020 1535.5L936.5 1369.5L704.079 955L880.579 893.5L1204 1521L1345 1466.5L1277.5 1270.5L1298.5 1264.5L1355 1426L1413 1403.5L1425 1439L1520.5 1409L1450.5 1208L1475.5 1199L1557.5 1439L1716.5 1379.5L1655 1187.5L1676.5 1179.5L1743 1371L1921 1307.5L1848.5 1102L1869.5 1094L1940 1295.5L2081.5 1243.5L1997.5 1019.5L2038 1008L2007.5 937L2153.5 872L1928 327L605.5 782.5L505.5 671L445 614.5L419 548L339 510.5L327.5 454L251 360L268.5 228.5L339 201L423 56.5Z" fill="#424242" stroke="black" stroke-opacity="0.12" stroke-width="10" mask="url(#path-10-inside-1_2440_4877)"/>
</g>
<path id="Live Activation Zone #zone #activities" opacity="0.3" d="M1442.78 4186.34L1602.11 4107.99C1739 4421 1940 4506.77 2070 4533L2021.03 4690.63C1653.47 4646.62 1482.38 4336.1 1442.78 4186.34Z" fill="#C600AA"/>
<path id="Car Parking 2 #zone #parking" opacity="0.4" d="M2781 4526V4568L2884.5 4745L2994.5 4752L3002.5 4526H2781Z" fill="#F9FFD3"/>
<path id="Car Parking #zone #parking" opacity="0.4" d="M2872 4372.5L2778.5 4437V4471V4505H3007.92L3038.47 4045.9L3060 3729.66L2732 3720L2738.51 4015.9L2851.5 4039L2872 4372.5Z" fill="#F9FFD3"/>
<path id="Grass4 #no-name #zone" d="M1047.5 1625L1030.5 1600.5H1160.5L1324 1576.5L1439.5 1668L1557.5 1902L1520.5 2028L1403.25 2175.75L1367 2071.5L1324 2028V2006.5L1298 1963L1222.5 1847.5H1160.5L1124.5 1784L1098.5 1708.5C1084.5 1697 1054.7 1672.8 1047.5 1668C1040.3 1663.2 1044.5 1637.33 1047.5 1625Z" fill="#35C759" fill-opacity="0.2"/>
<path id="Grass3 #no-name #zone" d="M3308 2096H3210.5L3165 2610C3147.5 2747.67 3111.3 3034.3 3106.5 3079.5C3100.5 3136 3074.5 3543.5 3074.5 3560.5C3074.5 3577.5 3148 3645 3167 3660C3182.2 3672 3215.67 3655 3230.5 3645L3308 2096Z" fill="#728806"/>
<path id="Roads #no-name #zone" d="M2019.85 33.7728C2030.39 29.8099 2039.28 28.0592 2045.9 29.4994C2051.27 30.6703 2057.06 35.1153 2063.12 41.9222C2069.2 48.7635 2075.66 58.136 2082.36 69.4125C2095.76 91.9699 2110.16 122.273 2124.32 155.509C2152.64 221.988 2180.05 300.32 2196.64 352.171L2196.64 352.183L2196.64 352.196C2207.22 388.328 2227.05 446.889 2252.19 505.105C2277.34 563.349 2307.74 621.133 2339.42 655.801C2359.33 677.585 2390.76 717.246 2428.41 765.116C2466.07 813.002 2509.96 869.133 2554.83 923.905C2599.7 978.678 2645.52 1032.07 2687.02 1074.49C2707.77 1095.69 2727.43 1114.14 2745.34 1128.64C2763.26 1143.15 2779.38 1153.66 2793.05 1159.05C2837.32 1176.47 2932.42 1225.34 3033.81 1280.9C3133.65 1335.6 3239.66 1396.84 3309.43 1441.04L3312.72 1443.13L3313.05 1443.35L3313.15 1443.73L3347.65 1579.23L3347.74 1579.57L3347.59 1579.89C3314.49 1652.42 3252.9 1857.58 3271.68 2097.4L3271.76 2098.48H3211.6L3162.18 2639.07L3162.18 2639.08L3162.18 2639.09L3110.68 3071.09C3103.51 3151.17 3093.84 3272.52 3088.11 3376.34C3085.24 3428.27 3083.36 3475.79 3083.27 3511.58C3083.23 3529.48 3083.63 3544.42 3084.58 3555.5C3085.05 3561.04 3085.66 3565.59 3086.41 3569.05C3087.17 3572.57 3088.05 3574.78 3088.94 3575.82C3094.25 3582 3102.03 3588.67 3110.77 3595.71C3119.48 3602.72 3129.16 3610.11 3138.14 3617.65C3147.12 3625.19 3155.48 3632.95 3161.6 3640.76C3167.71 3648.55 3171.68 3656.52 3171.68 3664.48C3171.68 3672.58 3166.81 3678.53 3159.85 3683.44C3152.92 3688.34 3143.68 3692.37 3134.6 3696.57C3125.47 3700.8 3116.46 3705.2 3109.73 3710.87C3103.04 3716.52 3098.68 3723.36 3098.68 3732.48C3098.68 3756.82 3092.72 3837.55 3085.87 3928.53C3079.01 4019.54 3071.27 4120.88 3067.68 4186.53L3067.68 4186.56L3067.68 4186.6C3058.17 4264.45 3038.48 4431.68 3035.68 4478.04C3032.88 4524.44 3021.51 4697.71 3016.18 4778.54L3016.12 4779.52L3015.14 4779.48L2879.64 4772.98L2878.68 4772.93V4733.35L2879.8 4733.48L2991.74 4746.36L3002.13 4528.48H2773.5V4497.98H3002.25L3042.19 3873.91L3042.19 3873.88L3042.19 3873.85C3045.26 3850.36 3044.85 3815.17 3033.71 3785.89C3028.15 3771.27 3019.92 3758.17 3008.16 3748.73C2996.41 3739.3 2981.07 3733.48 2961.18 3733.48C2880.75 3733.48 2696.63 3725.64 2638.12 3721.97L2636.27 3721.86L2637.38 3720.38L2684.38 3657.88L2684.71 3657.43L2685.26 3657.48C2763.96 3663.81 2929.24 3676.48 2961.18 3676.48C2980.98 3676.48 2999.87 3671.42 3014.5 3651.2C3029.2 3630.89 3039.69 3595.13 3042.18 3533.44C3046.18 3434.64 3055.85 3173.61 3060.18 3055.44L3060.19 3055.4L3060.19 3055.36C3066.44 3000.53 3076.09 2917.03 3084.73 2844.73C3089.05 2808.59 3093.11 2775.24 3096.38 2749.68C3099.63 2724.15 3102.09 2706.32 3103.21 2701.26C3104.29 2696.32 3107.06 2676.52 3110.83 2647.55C3114.6 2618.61 3119.37 2580.58 3124.47 2539.23C3134.66 2456.55 3146.18 2360.58 3153.68 2297.41V1898.84L3057.04 1884.47L3056.27 1884.35L3056.26 1884.26C2971.04 1880.28 2842.83 1875.01 2729.55 1871.87C2671.94 1870.27 2618.21 1869.22 2575.96 1869.17C2554.83 1869.14 2536.59 1869.37 2522.18 1869.9C2507.72 1870.43 2497.25 1871.26 2491.59 1872.43C2477.12 1875.39 2439.75 1887.25 2391.41 1904.07C2343.13 1920.86 2284.04 1942.56 2226.22 1965.14C2168.4 1987.73 2111.87 2011.19 2068.68 2031.53C2047.09 2041.7 2028.87 2051.08 2015.51 2059.15C2008.83 2063.18 2003.41 2066.87 1999.4 2070.15C1995.33 2073.47 1992.93 2076.2 1992.01 2078.28C1987.79 2087.78 1988.52 2097.45 1992.1 2108.07C1995.72 2118.77 2002.12 2130.16 2009.01 2143.09C2022.72 2168.82 2037.98 2200.02 2034.18 2241.15C2031.16 2273.69 2025.26 2298.11 2019.07 2315.44C2012.9 2332.7 2006.4 2343.07 2002.1 2347.38L2001.44 2348.04L2000.52 2347.96L1824.52 2333.13L1733.19 3538.41C1735.17 3555.09 1757.83 3590.78 1836.21 3591.97C1885.8 3592.72 2022.31 3604.78 2150.25 3615.17C2214.25 3620.37 2276.14 3625.16 2324.01 3627.91C2347.96 3629.29 2368.37 3630.16 2383.78 3630.32C2391.49 3630.4 2397.92 3630.3 2402.91 3630C2407.97 3629.7 2411.31 3629.21 2413 3628.59C2421.19 3625.59 2426.63 3619.17 2430.18 3610.44C2433.75 3601.66 2435.35 3590.69 2435.87 3578.94C2436.4 3567.2 2435.86 3554.84 2435.24 3543.31C2434.63 3531.85 2433.93 3521.14 2434.19 3512.9L2434.21 3511.94L2434.24 3510.97H2540.18V3553.16L2638.39 3563.48L2639.34 3563.58L2640.28 3563.68L2640.23 3564.62L2640.18 3565.57V3565.57L2632.18 3718.57L2632.08 3720.59L2630.06 3720.46L2152.07 3690.46L2152 3690.46L2151.92 3690.45L2151.85 3690.44L2151.78 3690.42L2151.77 3690.42C2107.63 3681.18 2036.61 3667.31 1967.03 3655.75C1897.4 3644.19 1829.39 3634.97 1791.18 3634.97C1752.38 3634.97 1721.16 3623.73 1697.44 3612.54C1685.62 3606.96 1675.56 3601.34 1667.52 3597.22C1663.47 3595.14 1659.94 3593.44 1656.89 3592.27C1653.81 3591.08 1651.38 3590.49 1649.5 3590.49H1648.51C1639.39 3594.42 1629.28 3598.14 1618.66 3601.98C1607.87 3605.89 1596.55 3609.92 1585.19 3614.46C1562.45 3623.55 1539.58 3634.62 1520.49 3650.59C1495.98 3671.08 1483.62 3707.66 1478.08 3754.06C1472.59 3800.06 1474.18 3851.5 1474.18 3898.97C1474.18 3942.87 1488.21 3998.52 1519.09 4071.04C1549.9 4143.4 1597.01 4231.49 1662.12 4340.01C1712.04 4423.22 1800.93 4481.43 1893.57 4520.28C1986 4559.04 2080.31 4577.73 2138.5 4583.03C2146.47 4583.75 2152.35 4590.81 2151.62 4598.78C2150.9 4606.76 2143.84 4612.63 2135.87 4611.91C2075.06 4606.37 1977.82 4587.06 1882.35 4547.03C1787.09 4507.08 1691.72 4445.71 1637.25 4354.93C1571.86 4245.94 1523.97 4156.54 1492.41 4082.4C1474.45 4040.22 1461.62 4002.65 1453.91 3968.95C1449 3973.23 1443.58 3978.69 1437.81 3985.17C1425.01 3999.54 1411.14 4018.16 1398.14 4038.08C1385.15 4057.98 1373.21 4078.88 1364.17 4097.71C1354.96 4116.92 1349.38 4132.73 1348.06 4142.83C1344.68 4168.87 1326.59 4241.16 1308.46 4316C1290.07 4391.97 1271.44 4471.28 1266.07 4513.78C1261.56 4549.45 1246.39 4623.5 1227.47 4700.58C1208.55 4777.64 1185.54 4859.12 1165.12 4909.42C1162.11 4916.84 1153.65 4920.41 1146.23 4917.4C1138.81 4914.39 1135.24 4905.93 1138.25 4898.51C1157.82 4850.31 1180.42 4770.59 1199.3 4693.67C1218.18 4616.78 1233.01 4544.08 1237.3 4510.15C1242.92 4465.65 1262.05 4384.46 1280.28 4309.18C1298.78 4232.77 1316.19 4163.06 1319.3 4139.1C1321.24 4124.2 1328.53 4104.95 1338.02 4085.17C1347.69 4065.02 1360.28 4043.01 1373.85 4022.23C1387.41 4001.46 1402.14 3981.61 1416.16 3965.87C1423.17 3958.01 1430.17 3950.99 1436.9 3945.34C1440.48 3942.34 1444.21 3939.54 1448 3937.19C1446.12 3923.8 1445.18 3911.08 1445.18 3898.97C1445.18 3852.93 1443.53 3798.87 1449.29 3750.62C1455 3702.78 1468.39 3656.35 1501.88 3628.34C1548.51 3589.35 1629.29 3537.1 1665.12 3515.02L1705.09 2746.25L1543.46 2728.45L1541.83 2728.27L1541.69 2726.64L1502.69 2275.64L1502.66 2275.24L1502.62 2274.84L1503.13 2274.21L1609.63 2142.21L1609.63 2142.21L1609.8 2142L1609.96 2141.79L1610.21 2141.7L1610.47 2141.6H1610.47C1750.08 2088.03 1958.42 1998.43 2131.88 1922.2C2218.6 1884.09 2296.6 1849.32 2352.91 1824.09C2381.07 1811.47 2403.81 1801.23 2419.5 1794.15C2427.35 1790.61 2433.44 1787.86 2437.57 1785.99C2439.63 1785.06 2441.2 1784.35 2442.26 1783.87C2442.79 1783.63 2443.19 1783.45 2443.46 1783.33C2443.59 1783.27 2443.69 1783.22 2443.76 1783.19C2443.8 1783.17 2443.8 1783.17 2443.83 1783.16C2443.84 1783.15 2443.84 1783.15 2443.85 1783.15C2443.85 1783.15 2443.85 1783.15 2443.85 1783.15L2444.09 1783.04L2444.32 1783.06C2444.34 1783.05 2444.36 1783.04 2444.38 1783.04C2444.39 1783.03 2444.4 1783.03 2444.42 1783.02C2444.43 1783.02 2444.44 1783.02 2444.46 1783.01C2444.46 1783.01 2444.5 1783 2444.55 1782.99L2444.68 1782.96L2444.81 1782.97C2444.82 1782.97 2444.82 1782.97 2444.83 1782.97L2444.83 1782.97H2444.84V1782.97C2444.85 1782.97 2444.85 1782.97 2444.85 1782.97L2444.85 1782.97C2444.86 1782.97 2444.86 1782.97 2444.87 1782.97C2444.88 1782.97 2444.89 1782.98 2444.91 1782.98C2444.93 1782.98 2445.06 1782.99 2445.11 1782.99C2445.28 1783.01 2445.56 1783.03 2445.9 1783.06C2446.59 1783.11 2447.6 1783.19 2448.88 1783.29L2491.84 1786.72C2503.59 1787.66 2515.34 1788.6 2524.16 1789.3C2528.56 1789.65 2532.23 1789.94 2534.8 1790.15C2536.09 1790.25 2537.1 1790.33 2537.79 1790.39C2537.96 1790.4 2538.11 1790.41 2538.24 1790.42C2538.37 1790.43 2538.48 1790.44 2538.57 1790.45C2538.62 1790.45 2538.66 1790.46 2538.69 1790.46C2538.73 1790.46 2538.76 1790.47 2538.78 1790.47L2538.83 1790.47H2538.83C2538.87 1790.47 2538.8 1790.47 2538.87 1790.47C2538.9 1790.48 2538.93 1790.48 2538.96 1790.48L2539.87 1790.53C2540.57 1790.58 2541.61 1790.64 2542.98 1790.72C2545.71 1790.89 2549.74 1791.14 2554.92 1791.46C2565.28 1792.09 2580.26 1793.01 2598.71 1794.15C2635.62 1796.42 2686.43 1799.56 2742.06 1803.03C2850.95 1809.82 2978.28 1817.87 3055.85 1823.13L3153.97 1826.45L3269.47 1478.46C3115.35 1396.89 2808.37 1205.87 2763.66 1178.33C2749.55 1169.64 2718.72 1142.77 2679.22 1105.35C2639.69 1067.89 2591.38 1019.77 2542.27 968.48C2444.1 865.928 2342.64 750.601 2301.83 682.49C2281.41 648.422 2257.17 595.049 2231.31 534.352C2205.47 473.695 2177.92 405.485 2151.01 341.992C2124.08 278.429 2097.72 219.441 2074.14 176.914C2062.34 155.645 2051.27 138.543 2041.2 127.051C2036.16 121.305 2031.4 117 2026.96 114.275C2022.53 111.55 2018.48 110.448 2014.82 110.966C1999.15 113.187 1979.2 122.379 1956.33 135.069C1933.46 147.75 1907.85 163.815 1880.82 179.713C1826.84 211.447 1767.25 242.47 1713.7 243.476C1660.38 244.477 1583.02 234.715 1501.54 227.722C1419.97 220.722 1334.21 216.486 1263.85 228.462C1201.15 239.135 1126.54 261.298 1058.19 282.492C989.902 303.668 927.802 323.898 890.271 330.633C876.855 333.041 866.184 322.211 866.184 308.815C866.184 299.627 871.252 291.156 879.459 286.984C1040.74 204.99 1228.02 171.893 1408.71 175.976C1453.02 176.977 1503.2 183.361 1553.8 189.484C1604.44 195.61 1655.5 201.476 1701.68 201.476C1724.55 201.476 1754.26 190.147 1786.89 173.167C1819.49 156.208 1854.82 133.702 1888.89 111.513C1922.93 89.338 1955.72 67.4706 1983.14 51.8421C1996.85 44.0274 2009.26 37.7513 2019.85 33.7728Z" fill="#595959"/>
<path id="Grass2 #no-name #zone #forbidden" d="M807 680C811.8 680 824 697.333 829.5 706L613 787L436 620L411.5 565.5L338 516.5L327.5 457L246 364.5L267.5 228.5L337.5 197.5L416.5 55L382.5 4C456.333 4 615 3 615 3C615 3 630 25.5 634 39.5L726.5 55V156.5L807 246L770 320L741 377.5L751.5 438.5L703.5 457L634 399.5L567.5 473.5L549.5 565.5L545.5 636.5L613 716.5C675.667 704.333 802.2 680 807 680Z" fill="#728806"/>
<path id="Zoo Berlin Swim Zone #zone #forbidden" opacity="0.4" d="M2324.5 1751L2078.5 1858L2086 1893.5L1992 1930.5L1958.5 1879L2067 1820L1986 1614L1808 1688L1773.5 1635.5L1686.5 1668L1720.5 1753.5L1622.5 1796.5L1545 1614L1569.5 1606.5L1525 1485L2114.5 1271L2324.5 1751Z" fill="#FF7700"/>

<path id="Zoo Camping Berlin #zone #forbidden" d="M904.5 577L912 677L1717 402L1676.5 348.5H1568L1504.5 389L1455.5 380.5L1419.5 422.5L1397.5 348.5L1342.5 311L1302 270.5L1215.5 236L1147.5 278L1046.5 357.5L939.5 380.5L883 453L904.5 577Z" fill="#35C759" fill-opacity="0.2"/>

<path id="Filler9 #no-name #structure" d="M2301.29 2092.9L2606.99 2102.54L2602.19 2254.57L2554.5 3336.5L2483.5 3336.5L2529.5 2254.57L2296.5 2244.93L2301.29 2092.9Z" fill="#E9E9E1"/>
<g id="Grass2 #no-name #zone">
<path d="M2736.5 3724.5L2706.5 3722.5L2683 3720L2659 4127H2781.5L2750 4738L2139 4722.5L2019 4704H1987L1905.5 4594.5H1804.5L1726 4504L1612 4380L1572 4278.5L1425 4255.5L1315.5 4340.5L1302 4418L1324 4460L1302 4528L1255 4612.5V4722.5L1213.5 4846L1286.5 4802.5C1286.5 4802.5 1278 4895 1233.5 4919.5C1189 4944 1213.5 5063.5 1185 5091C1156.5 5118.5 1068 5109.5 1032 5109.5C1003.2 5109.5 964 5158.83 948 5183.5H2995.5L2981.5 5028C2971.5 5028 2874.5 4989.5 2874.5 4989.5L2876 4861.5L2916 4788L2876 4614L2781.5 4565V4442.5L2876 4375.5L2868 4177.5L2853 4037L2741.5 4012.5V3900C2746.33 3860 2736.5 3724.5 2736.5 3724.5Z" fill="#728806"/>
<path d="M1106.5 4681C1102.17 4724.83 1106.5 4846 1106.5 4846L1146.5 4857.88L1172 4681L1226 4508.5C1226 4508.5 1185 4417 1172 4418C1161.6 4418.8 1150.67 4442.33 1146.5 4454L1106.5 4469.5V4528L1155 4568L1106.5 4681Z" fill="#728806"/>
</g>
<g id="Building #no-name #main-building">
<path id="Vector 132" d="M2199.9 4187.6L2199.32 4199.93C2016.1 4192.2 1939.43 4043.11 1924 3969.53L1962.26 3959.99L1973 3730.07L1580.14 3711.73L1565.06 4034.9L1625.34 4037.72C1630.9 4059.35 1637.21 4080.05 1644.19 4099.87C1756.8 4419.74 2043.36 4507.69 2184.77 4511.54L2341.36 4520L2341.36 4621.06L2757.01 4640.47L2781.33 4119.49L2712.18 4116.26L2711.59 4128.85L2579.12 4122.66L2579.71 4110.07L2511.32 4106.88L2510.85 4116.9L2463.74 4114.7L2463.41 4121.77L2286.61 4113.51L2286.94 4106.45L2242.37 4104.37L2241.6 4120.81L2238.4 4189.4L2199.9 4187.6Z" fill="#505050"/>
<path id="Vector 133" d="M2199.9 4187.6L2199.32 4199.93C2016.1 4192.2 1939.43 4043.11 1924 3969.53L1962.26 3959.99L1973 3730.07L1580.14 3711.73L1565.06 4034.9L1625.34 4037.72C1630.9 4059.35 1637.21 4080.05 1644.19 4099.87C1756.8 4419.74 2041.5 4500 2184.77 4511.54L2345.5 4518.5L2341.36 4621.06L2757.01 4640.47L2781.33 4119.49L2712.18 4116.26L2711.59 4128.85L2579.12 4122.66L2579.71 4110.07L2511.32 4106.88L2510.85 4116.9L2463.74 4114.7L2463.41 4121.77L2286.61 4113.51L2286.94 4106.45L2242.37 4104.37L2241.6 4120.81L2238.4 4189.4L2199.9 4187.6Z" fill="#FFB300" fill-opacity="0.3" stroke="#FFB300" stroke-width="8"/>
<g id="Vector 135" filter="url(#filter0_f_2440_4877)" style="mix-blend-mode:plus-lighter">
<path d="M2199.9 4187.6L2199.32 4199.93C2016.1 4192.2 1939.43 4043.11 1924 3969.53L1962.26 3959.99L1973 3730.07L1580.14 3711.73L1565.06 4034.9L1625.34 4037.72C1630.9 4059.35 1637.21 4080.05 1644.19 4099.87C1756.8 4419.74 2043.36 4507.69 2184.77 4511.54L2346 4520L2341.36 4621.06L2757.01 4640.47L2781.33 4119.49L2712.18 4116.26L2711.59 4128.85L2579.12 4122.66L2579.71 4110.07L2511.32 4106.88L2510.85 4116.9L2463.74 4114.7L2463.41 4121.77L2286.61 4113.51L2286.94 4106.45L2242.37 4104.37L2241.6 4120.81L2238.4 4189.4L2199.9 4187.6Z" stroke="#FFB300" stroke-width="12"/>
</g>
<g id="Frame 28991433">
<g id="Group 28989714">
<g id="Frame 28989703" clip-path="url(#clip0_2440_4877)">
<rect id="Rectangle 36919" x="2416.01" y="4353.71" width="112.911" height="49.096" fill="white" stroke="#846E38" stroke-width="4"/>
<rect id="Rectangle 36922" x="2416.01" y="4353.71" width="112.911" height="8.9624" fill="white" stroke="#846E38" stroke-width="4"/>
<rect id="Rectangle 36915" x="2444.18" y="4353.71" width="112.911" height="49.096" fill="white" stroke="#846E38" stroke-width="4"/>
<rect id="Rectangle 36918" x="2472.34" y="4353.71" width="56.5743" height="40.8698" fill="white" stroke="#846E38" stroke-width="4"/>
<rect id="Rectangle 36920" x="2444.18" y="4352.71" width="112.911" height="9.95951" fill="white" stroke="#846E38" stroke-width="4"/>
<rect id="Rectangle 36921" x="2444.18" y="4393.35" width="112.911" height="8.21457" fill="white" stroke="#846E38" stroke-width="4"/>
<path id="Vector 196" d="M2480.81 4354.2V4394.09" stroke="#846E38" stroke-width="4"/>
<path id="Vector 194" d="M2488.79 4354.2V4394.09" stroke="#846E38" stroke-width="4"/>
<path id="Vector 193" d="M2496.77 4354.2V4394.09" stroke="#846E38" stroke-width="4"/>
<path id="Vector 197" d="M2504.74 4354.2V4394.09" stroke="#846E38" stroke-width="4"/>
<path id="Vector 198" d="M2512.72 4354.2V4394.09" stroke="#846E38" stroke-width="4"/>
<path id="Vector 195" d="M2520.7 4354.2V4394.09" stroke="#846E38" stroke-width="4"/>
<g id="Rectangle 36917">
<mask id="path-41-inside-2_2440_4877" fill="white">
<path d="M2442.18 4336.76C2480.27 4325.06 2520.99 4325.06 2559.09 4336.76V4350.72H2442.18V4336.76Z"/>
</mask>
<path d="M2442.18 4336.76C2480.27 4325.06 2520.99 4325.06 2559.09 4336.76V4350.72H2442.18V4336.76Z" fill="white" stroke="#846E38" stroke-width="8" mask="url(#path-41-inside-2_2440_4877)"/>
</g>
<rect id="Rectangle 36916" x="2444.18" y="4339.25" width="112.911" height="13.4494" fill="white" stroke="#846E38" stroke-width="4"/>
<path id="Rectangle 36923" d="M2422.73 4381.13C2422.73 4379.61 2423.96 4378.39 2425.47 4378.39C2426.99 4378.39 2428.22 4379.61 2428.22 4381.13V4391.35H2422.73V4381.13Z" fill="#846E38"/>
<path id="Rectangle 36924" d="M2431.95 4381.13C2431.95 4379.61 2433.18 4378.39 2434.7 4378.39C2436.21 4378.39 2437.44 4379.61 2437.44 4381.13V4391.35H2431.95V4381.13Z" fill="#846E38"/>
</g>
</g>

</g>
</g>
<path id="Grass1 #no-name #zone" d="M1465.5 3085L1392 3155.5C1377.5 2933.5 1421.5 2923 1430 2889.5C1436.8 2862.7 1407.5 2835 1392 2824.5V2683.5L1406.5 2657V2622L1452 2589.5L1533 2579L1543.5 2726L1640.5 2738L1694.5 2863L1640.5 2948L1602 3085H1465.5Z" fill="#728806"/>
<path id="Road1 #no-name #zone" d="M1457.8 3933.35C1464.78 3930.75 1472.56 3934.31 1475.15 3941.29C1477.75 3948.28 1474.19 3956.05 1467.21 3958.65C1464.42 3959.69 1460.22 3962.21 1454.7 3966.84C1449.32 3971.34 1443.31 3977.32 1436.88 3984.53C1424.04 3998.95 1410.14 4017.62 1397.12 4037.57C1384.11 4057.5 1372.14 4078.44 1363.09 4097.32C1353.86 4116.54 1348.22 4132.47 1346.89 4142.74C1343.51 4168.7 1325.45 4240.9 1307.31 4315.8C1288.92 4391.74 1270.28 4471.12 1264.89 4513.69C1260.39 4549.3 1245.23 4623.3 1226.31 4700.38C1207.39 4777.43 1184.4 4858.85 1164.01 4909.08C1161.2 4915.99 1153.33 4919.31 1146.42 4916.51C1139.51 4913.7 1136.19 4905.83 1138.99 4898.92C1158.6 4850.65 1181.21 4770.87 1200.09 4693.94C1218.97 4617.05 1233.81 4544.3 1238.11 4510.31C1243.72 4465.88 1262.83 4384.76 1281.07 4309.45C1299.55 4233.1 1316.99 4163.3 1320.11 4139.26C1322.03 4124.53 1329.26 4105.4 1338.74 4085.64C1348.39 4065.53 1360.96 4043.56 1374.51 4022.81C1388.05 4002.07 1402.75 3982.26 1416.73 3966.57C1423.71 3958.73 1430.67 3951.75 1437.35 3946.14C1443.89 3940.66 1450.84 3935.93 1457.8 3933.35Z" fill="#595959"/>
</g>
<g id="Group 28989721">
<path id="Filler8 #no-name #structure" d="M1731 1759.97L1626 1804.47L1710 2036.47L1971 1938.47L1948.5 1875.97L2057 1818.47L1982.5 1626.97L1796 1700.97L1770.5 1647.47L1697.5 1676.47L1731 1759.97Z" fill="#373737"/>
<path id="Filler7 #no-name #structure" d="M2630.61 3548.14L2694.49 3552.02L2660 4123.5L2596.12 4119.62L2630.61 3548.14Z" fill="#373737"/>
<path id="Filler6 #no-name #structure" d="M825 167.769L1257.95 26.5898L1280.28 95.0425L847.321 236.222L825 167.769Z" fill="#373737"/>
<path id="Boat5 #no-name #boat #structure" d="M961.345 1020.27C941.22 981.253 937.161 935.911 950.036 893.941C991.698 907.779 1026.29 937.37 1046.42 976.385L1224.76 1322.12C1249.2 1369.5 1258.15 1423.36 1250.33 1476.1C1202.83 1451.9 1164.13 1413.39 1139.69 1366L961.345 1020.27Z" fill="#373737"/>
<path id="Boat4 #no-name #boat #structure" d="M1400.75 1311.47C1409.2 1333.82 1407.76 1358.72 1396.78 1379.95C1374.51 1371.29 1356.95 1353.58 1348.5 1331.22L1268.24 1118.96C1265.9 1112.76 1269.03 1105.83 1275.22 1103.49L1305.03 1092.22C1311.22 1089.88 1318.15 1093 1320.49 1099.2L1400.75 1311.47Z" fill="#373737"/>
<path id="Boat3 #no-name #boat #structure" d="M1490.45 1087.12C1482.09 1064.73 1483.63 1039.85 1494.69 1018.66C1516.94 1027.41 1534.42 1045.19 1542.78 1067.58L1622.18 1280.17C1624.5 1286.38 1621.34 1293.29 1615.14 1295.61L1585.29 1306.75C1579.08 1309.07 1572.17 1305.92 1569.85 1299.71L1490.45 1087.12Z" fill="#373737"/>
<path id="Boat2 #no-name #boat #structure" d="M1849.33 1189.24C1859.75 1219.78 1858.24 1253.13 1845.11 1282.62C1816.71 1267.3 1795.13 1241.83 1784.71 1211.28L1673.87 886.37C1671.73 880.098 1675.08 873.278 1681.36 871.138L1723.26 856.845C1729.53 854.705 1736.35 858.055 1738.49 864.328L1849.33 1189.24Z" fill="#373737"/>
<path id="Boat1 #no-name #boat #structure" d="M1791.78 818.162C1780.27 785.602 1780.51 750.043 1792.46 717.64C1822.11 735.34 1844.64 762.851 1856.15 795.412L1985.26 1160.72C1987.47 1166.97 1984.2 1173.82 1977.95 1176.03L1936.21 1190.78C1929.96 1192.99 1923.1 1189.72 1920.9 1183.47L1791.78 818.162Z" fill="#373737"/>
<g id="Group 28989701">
<path id="Filler5 #no-name #structure" d="M2380 2353.97C2196.33 2343.3 1827.5 2321.97 1821.5 2321.97C1815.5 2321.68 1764.17 3126.85 1735 3530.97L2417.5 3574.47V3289.47L2384 3229.97C2375.33 3230.47 2356.3 3231.17 2349.5 3229.97C2342.7 3228.77 2367 2645.47 2380 2353.97Z" fill="#373737"/>
<path id="Funkhaus Food Zone #zone #food" opacity="0.3" d="M1781.12 2860H1909L1888 3422.5L1743 3415.5L1781.12 2860Z" fill="#9462FA"/>
<path id="Filler4 #no-name #structure" d="M2300.57 2091.55L2607.49 2102.51L2602.69 2254.54L2555 3336.47L2482.79 3336.47L2518 2262L2295.74 2245.2L2300.57 2091.55Z" fill="#373737"/>
<path id="Filler3 #no-name #structure" d="M2627.5 1978L2851.53 1990.07L2756.84 3569.95L2538.23 3556.85L2627.5 1978Z" fill="#373737"/>
</g>
<rect id="Filler2 #no-name #structure" x="2014.5" y="945.926" width="185.387" height="616.853" transform="rotate(-22.4556 2014.5 945.926)" fill="#373737"/>
<rect id="Filler1 #no-name #structure" x="1673.8" y="4814.02" width="1249.67" height="139" transform="rotate(1.77413 1673.8 4814.02)" fill="#373737"/>
</g>
</g>

<path id="BOAT #boat #no-name #zone #forbidden" opacity="0.4" d="M1302.79 4066.3L1279.57 4088.03L1259.65 4063.24L1277.81 3807L1320.95 3810.06L1302.79 4066.3Z" fill="#DBF5FF"/>



</g>
</g>
<defs>

<clipPath id="clip0_2440_4877">
<rect width="145" height="90" fill="white" transform="translate(2414.01 4318.81)"/>
</clipPath>
</defs>
</svg>
