<svg width="28" height="28" viewBox="0 0 28 28" fill="none" xmlns="http://www.w3.org/2000/svg">
<path d="M25.6654 9.96333V7C25.6654 5.71666 24.6154 4.66666 23.332 4.66666H4.66536C3.38203 4.66666 2.3437 5.705 2.3437 7V9.96333C2.3437 10.7683 2.7287 11.5617 3.44036 11.935C4.17536 12.3433 4.66536 13.1133 4.66536 14C4.66536 14.8867 4.1637 15.6683 3.4287 16.0533C2.7287 16.4383 2.33203 17.2317 2.33203 18.0367V21C2.33203 22.2833 3.38203 23.3333 4.66536 23.3333H23.332C24.6154 23.3333 25.6654 22.2833 25.6654 21V18.0367C25.6654 17.2317 25.2687 16.4383 24.5687 16.0533C23.8337 15.6567 23.332 14.8867 23.332 14C23.332 13.1133 23.8337 12.3433 24.5687 11.9467C25.2687 11.5617 25.6654 10.7683 25.6654 9.96333ZM15.1654 20.4167H12.832V18.0833H15.1654V20.4167ZM15.1654 15.1667H12.832V12.8333H15.1654V15.1667ZM15.1654 9.91666H12.832V7.58333H15.1654V9.91666Z" fill="black"/>
</svg>
