<svg width="28" height="28" viewBox="0 0 28 28" fill="none" xmlns="http://www.w3.org/2000/svg">
<path d="M13.9987 2.33333C7.5587 2.33333 2.33203 7.56 2.33203 14C2.33203 20.44 7.5587 25.6667 13.9987 25.6667C20.4387 25.6667 25.6654 20.44 25.6654 14C25.6654 7.56 20.4387 2.33333 13.9987 2.33333ZM13.9987 15.1667C13.357 15.1667 12.832 14.6417 12.832 14V9.33333C12.832 8.69167 13.357 8.16667 13.9987 8.16667C14.6404 8.16667 15.1654 8.69167 15.1654 9.33333V14C15.1654 14.6417 14.6404 15.1667 13.9987 15.1667ZM15.1654 19.8333H12.832V17.5H15.1654V19.8333Z" fill="white"/>
</svg>
