<svg width="354" height="221" viewBox="0 0 354 221" fill="none" xmlns="http://www.w3.org/2000/svg">
<g clip-path="url(#clip0_6734_7413)">
<path d="M61.1562 23.9281C61.1562 12.3698 70.526 3.00006 82.0843 3.00006H258.228C269.786 3.00006 279.156 12.3698 279.156 23.9281V195.672C279.156 208.812 267.187 218.702 254.282 216.224L78.1381 182.405C68.2815 180.512 61.1562 171.889 61.1562 161.852V23.9281Z" fill="white" fill-opacity="0.08"/>
<path d="M109.55 63.9136C117.89 36.4325 146.929 20.9151 174.41 29.2544L205.031 38.5473C232.512 46.887 248.03 75.9254 239.69 103.407L230.398 134.028C230.023 135.262 229.605 136.472 229.149 137.657L229.155 137.655L216.655 190.655L162.199 167.673L134.918 159.394C107.436 151.054 91.9188 122.016 100.258 94.5346L109.55 63.9136Z" fill="white"/>
<circle cx="135.313" cy="89.3541" r="11" transform="rotate(15 135.313 89.3541)" fill="black"/>
<circle cx="168.153" cy="98.1539" r="11" transform="rotate(15 168.153 98.1539)" fill="black"/>
<circle cx="200.997" cy="106.955" r="11" transform="rotate(15 200.997 106.955)" fill="black"/>
<circle cx="80" cy="102" r="9" fill="white"/>
<circle cx="71" cy="94.0001" r="9" fill="white"/>
<circle cx="82" cy="91.0001" r="9" fill="white"/>
<circle cx="256" cy="178" r="9" fill="white"/>
<circle cx="247" cy="170" r="9" fill="white"/>
<circle cx="245" cy="182" r="9" fill="white"/>
<circle cx="258" cy="167" r="9" fill="white"/>
</g>
<path d="M249.785 46.3733L250.011 45.9359C251.071 43.9114 252.097 42.3947 253.087 41.3858C254.089 40.3827 255.126 39.6963 256.198 39.3266C257.276 38.9457 258.473 38.7048 259.791 38.6038C260.695 38.5311 261.547 38.3816 262.346 38.1551C263.163 37.9231 263.89 37.5742 264.529 37.1084C265.173 36.6314 265.698 36.0003 266.104 35.2151C266.562 34.3289 266.752 33.4533 266.673 32.5883C266.594 31.7232 266.294 30.9286 265.773 30.2045C265.263 29.4861 264.576 28.9038 263.712 28.4574C262.916 28.0458 262.069 27.8284 261.171 27.8051C260.291 27.7764 259.435 27.988 258.605 28.44C257.791 28.8866 257.084 29.6226 256.483 30.648L250.493 27.5524C251.651 25.4502 253.088 23.9334 254.806 23.0019C256.535 22.0763 258.393 21.6719 260.379 21.7888C262.377 21.9115 264.357 22.48 266.32 23.4945C268.462 24.6017 270.153 25.9513 271.391 27.5434C272.64 29.1413 273.359 30.8705 273.549 32.7309C273.756 34.5859 273.369 36.4613 272.39 38.3569C271.729 39.6356 270.93 40.6725 269.993 41.4676C269.068 42.2684 268.026 42.8672 266.869 43.264C265.712 43.6608 264.458 43.901 263.107 43.9846C261.909 44.0759 260.861 44.2737 259.965 44.5779C259.08 44.888 258.285 45.38 257.582 46.0539C256.895 46.7224 256.239 47.6482 255.613 48.8314L255.387 49.2689L249.785 46.3733ZM247.286 58.3853C246.277 57.8636 245.593 57.0554 245.235 55.9607C244.877 54.866 244.964 53.8027 245.498 52.7708C246.019 51.7613 246.83 51.086 247.93 50.7449C249.031 50.4038 250.085 50.4941 251.095 51.0158C252.093 51.5318 252.771 52.3371 253.129 53.4317C253.499 54.5322 253.423 55.5872 252.901 56.5967C252.547 57.281 252.052 57.8136 251.414 58.1948C250.788 58.5817 250.107 58.7985 249.372 58.8452C248.655 58.8864 247.959 58.7331 247.286 58.3853Z" fill="white"/>
<path d="M91.3964 47.4692L91.0802 47.0292C89.624 44.9793 88.6483 43.217 88.153 41.7424C87.669 40.2597 87.5132 38.9004 87.6857 37.6645C87.85 36.4173 88.2111 35.1226 88.7692 33.7806C89.1492 32.8574 89.4276 31.9473 89.6042 31.0505C89.784 30.1343 89.8048 29.2469 89.6666 28.3881C89.5204 27.5181 89.1635 26.6883 88.5959 25.8986C87.9554 25.0074 87.1913 24.3847 86.3037 24.0304C85.4161 23.6761 84.4872 23.5738 83.517 23.7236C82.5582 23.8653 81.6444 24.2483 80.7758 24.8726C79.9749 25.4483 79.3391 26.1704 78.8685 27.039C78.401 27.8882 78.1817 28.8328 78.2106 29.8727C78.2427 30.8933 78.6116 31.954 79.3173 33.0549L73.2933 37.3845C71.8093 35.2006 71.0391 33.034 70.9827 30.8847C70.9376 28.7272 71.4678 26.7038 72.5734 24.8143C73.6902 22.9167 75.2357 21.2585 77.2098 19.8396C79.3645 18.2911 81.5312 17.3069 83.7102 16.8871C85.9004 16.4591 87.955 16.6162 89.8741 17.3583C91.7964 18.081 93.4427 19.3956 94.8129 21.3021C95.7371 22.5881 96.3554 23.8887 96.6677 25.204C96.9913 26.5111 97.059 27.8311 96.8707 29.164C96.6824 30.4969 96.2924 31.8465 95.7005 33.2128C95.1921 34.4336 94.8635 35.5594 94.7147 36.5901C94.5772 37.6128 94.6634 38.6372 94.9733 39.6634C95.2863 40.6702 95.8668 41.7755 96.715 42.9794L97.0312 43.4194L91.3964 47.4692ZM101.93 55.9119C100.914 56.6416 99.7806 56.9089 98.5284 56.714C97.2763 56.519 96.2773 55.9026 95.5313 54.8648C94.8016 53.8495 94.544 52.7174 94.7583 51.4684C94.9727 50.2194 95.5875 49.2301 96.6028 48.5004C97.6068 47.7788 98.7348 47.5155 99.987 47.7105C101.25 47.8973 102.247 48.4984 102.977 49.5137C103.471 50.2018 103.746 50.9535 103.802 51.7689C103.869 52.5762 103.742 53.3517 103.421 54.0955C103.104 54.82 102.606 55.4254 101.93 55.9119Z" fill="white"/>
<path d="M77.7434 153.91L77.6277 153.573C77.0996 152.007 76.8195 150.712 76.7873 149.69C76.7637 148.665 76.9233 147.78 77.2662 147.034C77.6061 146.28 78.0789 145.534 78.6847 144.795C79.0989 144.286 79.4467 143.766 79.7279 143.235C80.0148 142.692 80.1962 142.137 80.272 141.57C80.3448 140.995 80.2775 140.405 80.0699 139.8C79.8357 139.118 79.4727 138.581 78.9811 138.189C78.4895 137.798 77.9241 137.558 77.285 137.468C76.6545 137.375 76.0066 137.443 75.3415 137.672C74.7281 137.882 74.191 138.216 73.73 138.674C73.2747 139.12 72.9576 139.673 72.7786 140.333C72.6053 140.981 72.6364 141.719 72.872 142.546L68.2589 144.13C67.7387 142.473 67.6646 140.963 68.0366 139.6C68.4173 138.233 69.1347 137.06 70.1889 136.08C71.2517 135.097 72.539 134.346 74.0508 133.827C75.7008 133.261 77.2514 133.052 78.7027 133.201C80.1626 133.347 81.4263 133.835 82.4937 134.666C83.5669 135.485 84.354 136.625 84.8551 138.085C85.1932 139.07 85.3358 140.006 85.283 140.893C85.2389 141.777 85.0313 142.621 84.66 143.425C84.2888 144.228 83.7874 145.004 83.1557 145.752C82.6042 146.424 82.184 147.07 81.8949 147.691C81.6144 148.308 81.4745 148.97 81.475 149.674C81.4811 150.368 81.6371 151.174 81.9427 152.092L82.0584 152.429L77.7434 153.91ZM82.7736 161.222C81.9961 161.489 81.2317 161.442 80.4804 161.082C79.7291 160.722 79.2171 160.145 78.9443 159.35C78.6774 158.572 78.7298 157.811 79.1015 157.065C79.4733 156.32 80.0479 155.813 80.8254 155.547C81.5942 155.283 82.3543 155.331 83.1056 155.691C83.8655 156.048 84.3789 156.615 84.6458 157.393C84.8267 157.92 84.8574 158.445 84.7378 158.969C84.6269 159.49 84.4 159.954 84.057 160.362C83.7197 160.757 83.2919 161.044 82.7736 161.222Z" fill="white"/>
<path d="M258.236 125.645L258.12 125.308C257.592 123.741 257.312 122.447 257.279 121.425C257.256 120.399 257.416 119.514 257.758 118.769C258.098 118.015 258.571 117.268 259.177 116.529C259.591 116.02 259.939 115.5 260.22 114.969C260.507 114.426 260.688 113.871 260.764 113.305C260.837 112.729 260.77 112.139 260.562 111.534C260.328 110.852 259.965 110.315 259.473 109.924C258.982 109.532 258.416 109.292 257.777 109.202C257.147 109.11 256.499 109.178 255.834 109.406C255.22 109.616 254.683 109.951 254.222 110.408C253.767 110.854 253.45 111.407 253.271 112.067C253.098 112.716 253.129 113.454 253.364 114.28L248.751 115.864C248.231 114.208 248.157 112.698 248.529 111.334C248.909 109.967 249.627 108.794 250.681 107.814C251.744 106.831 253.031 106.08 254.543 105.561C256.193 104.995 257.744 104.786 259.195 104.935C260.655 105.081 261.918 105.569 262.986 106.4C264.059 107.22 264.846 108.36 265.347 109.819C265.685 110.804 265.828 111.74 265.775 112.627C265.731 113.512 265.523 114.356 265.152 115.159C264.781 115.962 264.28 116.738 263.648 117.486C263.096 118.158 262.676 118.804 262.387 119.425C262.107 120.043 261.967 120.704 261.967 121.409C261.973 122.102 262.129 122.908 262.435 123.827L262.551 124.163L258.236 125.645ZM263.266 132.957C262.488 133.223 261.724 133.177 260.973 132.817C260.221 132.457 259.709 131.879 259.436 131.084C259.17 130.307 259.222 129.545 259.594 128.8C259.965 128.054 260.54 127.548 261.318 127.281C262.086 127.017 262.846 127.065 263.598 127.425C264.358 127.782 264.871 128.35 265.138 129.127C265.319 129.654 265.35 130.18 265.23 130.703C265.119 131.224 264.892 131.688 264.549 132.096C264.212 132.492 263.784 132.779 263.266 132.957Z" fill="white"/>
<defs>
<clipPath id="clip0_6734_7413">
<rect width="354" height="218" fill="white" transform="translate(0 3.00006)"/>
</clipPath>
</defs>
</svg>
